<?xml version="1.0" encoding="utf-8"?>
<!-- Generator: Adobe Illustrator 21.0.0, SVG Export Plug-In . SVG Version: 6.00 Build 0)  -->
<svg version="1.1" id="Layer_1" xmlns="http://www.w3.org/2000/svg" xmlns:xlink="http://www.w3.org/1999/xlink" x="0px" y="0px"
	 viewBox="0 0 512 512" style="enable-background:new 0 0 512 512;" xml:space="preserve">
<style type="text/css">
	.st0{fill:#71CCE0;}
	.st1{fill:#DFDFDF;}
	.st2{fill:#4A555F;}
	.st3{fill:#FFD452;}
	.st4{fill:#F58E6F;}
	.st5{fill:#FFFFFF;}
	.st6{fill:none;}
</style>
<g>
	<g>
		<g>
			<g>
				<path class="st2" d="M235.266,275.706c-23.741,0-43.057,19.316-43.057,43.057s19.316,43.057,43.057,43.057
					c23.741,0,43.057-19.316,43.057-43.057S259.007,275.706,235.266,275.706z M235.266,355.653c-20.342,0-36.89-16.55-36.89-36.89
					c0-20.342,16.549-36.89,36.89-36.89s36.89,16.549,36.89,36.89C272.156,339.103,255.608,355.653,235.266,355.653z"/>
			</g>
		</g>
	</g>
	<g>
		<g>
			<path class="st3" d="M235.266,289.067c-16.374,0-29.695,13.322-29.695,29.695s13.321,29.695,29.695,29.695
				s29.695-13.322,29.695-29.695S251.64,289.067,235.266,289.067z"/>
		</g>
	</g>
	<g>
		<g>
			<path class="st2" d="M263.905,355.653h-61.398c-28.071,0-50.909,22.837-50.909,50.909v72.746h6.167v-72.746
				c0-24.672,20.072-44.742,44.742-44.742h61.398c24.671,0,44.741,20.071,44.741,44.742v72.746h6.167v-72.746
				C314.813,378.49,291.977,355.653,263.905,355.653z"/>
		</g>
	</g>
	<g>
		<g>
			<path class="st1" d="M263.906,370.325h-61.399c-19.98,0-36.236,16.256-36.236,36.236v72.747h133.87v-72.747
				C300.142,386.581,283.886,370.325,263.906,370.325z"/>
		</g>
	</g>
	<g>
		<g>
			<rect x="175.488" y="433.456" class="st2" width="6.167" height="45.853"/>
		</g>
	</g>
	<g>
		<g>
			<rect x="284.735" y="433.456" class="st2" width="6.167" height="45.853"/>
		</g>
	</g>
	<g>
		<g>
			<g>
				<path class="st2" d="M71.647,305.615c-20.454,0-37.095,16.64-37.095,37.094c0,20.454,16.641,37.096,37.095,37.096
					s37.095-16.642,37.095-37.096C108.742,322.255,92.101,305.615,71.647,305.615z M71.647,373.638
					c-17.053,0-30.928-13.876-30.928-30.929c0-17.053,13.875-30.927,30.928-30.927s30.928,13.874,30.928,30.927
					C102.575,359.762,88.701,373.638,71.647,373.638z"/>
			</g>
		</g>
	</g>
	<g>
		<g>
			<path class="st3" d="M71.648,318.559c-13.317,0-24.152,10.834-24.152,24.151c0,13.317,10.835,24.151,24.152,24.151
				s24.15-10.834,24.15-24.151C95.798,329.393,84.965,318.559,71.648,318.559z"/>
		</g>
	</g>
	<g>
		<g>
			<path class="st2" d="M96.015,373.638h-52.24C19.637,373.638,0,393.274,0,417.412v61.896h6.167v-61.896
				c0-20.737,16.871-37.607,37.608-37.607h52.24c20.737,0,37.609,16.871,37.609,37.607v61.896h6.167v-61.896
				C139.79,393.274,120.152,373.638,96.015,373.638z"/>
		</g>
	</g>
	<g>
		<g>
			<path class="st1" d="M96.016,386.581H43.775c-17,0-30.831,13.831-30.831,30.831v61.896h113.903v-61.896
				C126.847,400.412,113.015,386.581,96.016,386.581z"/>
		</g>
	</g>
	<g>
		<g>
			<rect x="20.326" y="440.295" class="st2" width="6.167" height="39.013"/>
		</g>
	</g>
	<g>
		<g>
			<rect x="113.278" y="440.295" class="st2" width="6.167" height="39.013"/>
		</g>
	</g>
	<g>
		<g>
			<polygon class="st4" points="217.243,358.736 228.791,380.326 241.741,380.326 253.288,358.736 			"/>
		</g>
	</g>
	<g>
		<g>
			<polygon class="st4" points="241.741,380.326 228.791,380.326 217.243,451.712 234.302,471.765 251.624,451.712 			"/>
		</g>
	</g>
	<g>
		<g>
			<g>
				<path class="st2" d="M212.097,355.653l14.846,27.757h16.646l14.845-27.757H212.097z M239.893,377.243h-9.254l-8.25-15.424
					h25.753L239.893,377.243z"/>
			</g>
		</g>
	</g>
	<g>
		<g>
			<g>
				<path class="st2" d="M244.427,377.243h-18.261l-12.194,75.382l20.312,23.876l20.586-23.831L244.427,377.243z M220.514,450.798
					l10.901-67.389h7.639l9.323,67.342l-14.057,16.274L220.514,450.798z"/>
			</g>
		</g>
	</g>
	<g>
		<g>
			<g>
				<path class="st2" d="M421.127,246.01c-0.001,0-0.001,0-0.002,0c-13.082,0-25.38,5.094-34.63,14.344
					c-9.25,9.25-14.345,21.549-14.345,34.632c0,27.006,21.971,48.977,48.977,48.977c27.006,0,48.977-21.971,48.977-48.977
					C470.104,267.981,448.134,246.01,421.127,246.01z M421.127,337.796c-23.606,0-42.81-19.204-42.81-42.81
					c0-11.435,4.453-22.185,12.539-30.271c8.086-8.085,18.837-12.538,30.271-12.538c23.606,0,42.81,19.205,42.81,42.809
					C463.937,318.592,444.733,337.796,421.127,337.796z"/>
			</g>
		</g>
	</g>
	<g>
		<g>
			<path class="st3" d="M421.125,259.372c-19.637,0-35.613,15.976-35.613,35.614s15.977,35.615,35.615,35.615
				c19.638,0,35.615-15.977,35.615-35.615S440.765,259.372,421.125,259.372z"/>
		</g>
	</g>
	<g>
		<g>
			<path class="st2" d="M454.009,337.796h-70.491c-31.977,0-57.991,26.015-57.991,57.992v83.52h6.167v-83.52
				c0-28.576,23.248-51.825,51.825-51.825h70.491c28.576,0,51.824,23.248,51.824,51.825v83.52H512v-83.52
				C512,363.811,485.985,337.796,454.009,337.796z"/>
		</g>
	</g>
	<g>
		<g>
			<path class="st1" d="M454.019,352.129h-70.508c-24.072,0-43.641,19.59-43.641,43.662v83.521H497.66v-83.521
				C497.66,371.719,478.091,352.129,454.019,352.129z"/>
		</g>
	</g>
	<g>
		<g>
			<rect x="352.954" y="426.667" class="st2" width="6.167" height="52.642"/>
		</g>
	</g>
	<g>
		<g>
			<rect x="478.379" y="426.667" class="st2" width="6.167" height="52.642"/>
		</g>
	</g>
	<g>
		<g>
			<polygon class="st4" points="400.436,340.88 413.694,365.667 428.562,365.667 441.819,340.88 			"/>
		</g>
	</g>
	<g>
		<g>
			<polygon class="st4" points="428.562,365.667 413.694,365.667 400.436,447.625 420.021,470.647 439.909,447.625 			"/>
		</g>
	</g>
	<g>
		<g>
			<g>
				<path class="st2" d="M395.289,337.796l16.557,30.955h18.564l16.555-30.955H395.289z M426.714,362.584h-11.172l-9.96-18.621
					h31.091L426.714,362.584z"/>
			</g>
		</g>
	</g>
	<g>
		<g>
			<g>
				<path class="st2" d="M431.248,362.584h-20.179l-13.905,85.953l22.839,26.848l23.151-26.802L431.248,362.584z M403.707,446.711
					l12.612-77.959h9.557l10.786,77.914l-16.623,19.245L403.707,446.711z"/>
			</g>
		</g>
	</g>
	<g>
		<g>
			<polygon class="st4" points="56.408,376.721 66.172,394.976 77.122,394.976 86.886,376.721 			"/>
		</g>
	</g>
	<g>
		<g>
			<polygon class="st4" points="77.122,394.976 66.172,394.976 56.408,455.334 70.832,472.29 85.479,455.334 			"/>
		</g>
	</g>
	<g>
		<g>
			<g>
				<path class="st2" d="M51.262,373.638l13.062,24.42h14.645l13.062-24.42H51.262z M75.274,391.892H68.02l-6.465-12.087H81.74
					L75.274,391.892z"/>
			</g>
		</g>
	</g>
	<g>
		<g>
			<g>
				<path class="st2" d="M79.807,391.892h-16.26l-10.41,64.357l17.677,20.779l17.911-20.733L79.807,391.892z M59.68,454.422
					l9.117-56.364h5.639l7.797,56.317L70.85,467.552L59.68,454.422z"/>
			</g>
		</g>
	</g>
	<g>
		<g>
			<g>
				<path class="st2" d="M35.826,169.174v116.513h39.716V169.174H35.826z M69.376,279.52H41.993V175.341h27.383V279.52z"/>
			</g>
		</g>
	</g>
	<g>
		<g>
			<rect x="48.623" y="181.971" class="st4" width="14.123" height="90.919"/>
		</g>
	</g>
	<g>
		<g>
			<g>
				<path class="st2" d="M103.993,104.604v188.858h39.716V104.604H103.993z M137.543,287.295H110.16V110.771h27.383V287.295z"/>
			</g>
		</g>
	</g>
	<g>
		<g>
			<rect x="116.791" y="117.4" class="st4" width="14.123" height="163.264"/>
		</g>
	</g>
	<g>
		<g>
			<g>
				<path class="st2" d="M172.161,144.771v120.71h39.717v-120.71H172.161z M205.71,259.315h-27.383V150.938h27.383V259.315z"/>
			</g>
		</g>
	</g>
	<g>
		<g>
			<rect x="184.958" y="157.568" class="st4" width="14.122" height="95.117"/>
		</g>
	</g>
	<g>
		<g>
			<g>
				<path class="st2" d="M240.328,180.617v84.864h39.717v-84.864H240.328z M273.877,259.315h-27.383v-72.531h27.383V259.315z"/>
			</g>
		</g>
	</g>
	<g>
		<g>
			<rect x="253.125" y="193.415" class="st4" width="14.122" height="59.271"/>
		</g>
	</g>
	<g>
		<g>
			<g>
				<path class="st2" d="M308.495,89.447v196.24h39.717V89.447H308.495z M342.045,279.52h-27.383V95.614h27.383V279.52z"/>
			</g>
		</g>
	</g>
	<g>
		<g>
			<rect x="321.292" y="102.244" class="st4" width="14.123" height="170.646"/>
		</g>
	</g>
	<g>
		<g>
			<g>
				<path class="st2" d="M376.662,143.059v90.654h39.717v-90.654H376.662z M410.212,227.546h-27.383v-78.32h27.383V227.546z"/>
			</g>
		</g>
	</g>
	<g>
		<g>
			<rect x="389.46" y="155.856" class="st4" width="14.122" height="65.06"/>
		</g>
	</g>
	<g>
		<g>
			<g>
				<path class="st2" d="M444.829,104.604v129.109h39.717V104.604H444.829z M478.379,227.546h-27.383V110.771h27.383V227.546z"/>
			</g>
		</g>
	</g>
	<g>
		<g>
			<rect x="457.626" y="117.4" class="st4" width="14.123" height="103.516"/>
		</g>
	</g>
	<g>
		<g>
			<polygon class="st2" points="479.224,33.652 411.969,104.604 377.041,104.604 357.845,70.327 298.22,70.327 261.728,144.771 
				237.077,144.771 219.054,112.465 180.155,112.465 156.32,79.215 85.158,79.215 46.074,143.059 8.916,143.059 8.916,149.226 
				49.529,149.226 88.613,85.382 153.152,85.382 176.987,118.632 215.432,118.632 233.455,150.938 265.573,150.938 302.064,76.494 
				354.231,76.494 373.426,110.771 414.621,110.771 483.701,37.893 			"/>
		</g>
	</g>
	<g>
		<g>
			<polygon class="st2" points="454.607,32.689 454.607,38.856 478.379,38.856 478.379,62.111 484.546,62.111 484.546,32.689 			"/>
		</g>
	</g>
</g>
</svg>
